<svg xmlns="http://www.w3.org/2000/svg" viewBox="0 0 2200 2200"><defs><style>.cls-1{fill:#3aa935;}</style></defs><g id="Objects"><path class="cls-1" d="M1734.91,377.1h-49.36v104a86.52,86.52,0,1,1-173,0v-104H1352.87v104a86.53,86.53,0,1,1-173,0v-104H1020.18v104a86.53,86.53,0,1,1-173,0v-104H687.49v104a86.52,86.52,0,1,1-173,0v-104H465.09c-91.57,0-166.06,74.49-166.06,166V1813c0,91.56,74.49,166.06,166.06,166.06H1734.91c91.57,0,166.06-74.5,166.06-166.06V543.15C1901,451.59,1826.48,377.1,1734.91,377.1ZM1789.44,1813H410.56a33.46,33.46,0,0,1-33.46-33.46V808.28a33.46,33.46,0,0,1,33.46-33.46H1789.44a33.46,33.46,0,0,1,33.46,33.46v971.24A33.46,33.46,0,0,1,1789.44,1813Z"/><rect class="cls-1" x="548.89" y="220.96" width="104.15" height="312.26" rx="52.08"/><rect class="cls-1" x="881.58" y="220.96" width="104.15" height="312.26" rx="52.08"/><rect class="cls-1" x="1214.27" y="220.96" width="104.15" height="312.26" rx="52.08"/><rect class="cls-1" x="1546.95" y="220.96" width="104.15" height="312.26" rx="52.08"/><path class="cls-1" d="M1393.32,1130.29c-155.08,139.46-345.54,311.47-441.46,484.19Q909,1546.19,861.7,1480.8a76,76,0,0,0-110.57-13.49c-.29.25-.59.51-.89.75a34.53,34.53,0,0,0-4.57,48.07A1527.61,1527.61,0,0,1,880.42,1713a81.12,81.12,0,0,0,86,39.27l1-.2a81.52,81.52,0,0,0,59.08-47.68,1953.77,1953.77,0,0,1,349.83-540.87,25.19,25.19,0,0,0,6.59-17c0-1.45,9.78-2.53,20.77-3.55C1400.72,1138.27,1397.35,1133.66,1393.32,1130.29Z"/><path class="cls-1" d="M1644.83,1136.23c.08-2.29.05-4.54-.09-6.82s-.47-4.5-.87-6.72a66,66,0,0,0-3.73-13,65.23,65.23,0,0,0-2.85-6.19c-14.88-28.34-45.3-42.06-73.72-53,19.13-25,42.65-54.86,37.74-88.53-3.31-22.35-18.75-39.36-36.11-52.5-19.85-8.26-38.3-9.68-58.53-1.37-22.6,9.21-39.12,26.12-55.36,43.6-17.53-28.16-35.59-54.49-70.21-62.55-15.7-3.67-32.88-2.28-46.87,6.29-15.33,9.5-25.14,25.88-28.79,43.27-7.61,36.6,9.77,61.93,26.48,92-31.7,7-62.05,14.54-81.45,43.31-9.13,13.55-13.71,30.07-10.41,46.24s14,29.46,27.59,38.28c20.84,13.54,45.61,16.61,69.88,17.58q-16,16.48-31.92,33.07a112.52,112.52,0,0,1,17.21,14.69q18.86-21.41,37.79-42.72c4.54,35.57,13,71,43.58,93.84,13.47,10,30,15.21,46.79,12.61,17.93-2.76,32.82-14.11,42.71-28.95,14.87-22.14,18.18-49,18.45-75,30.41,12.82,61.16,23.21,93.6,9.4,2-.84,4-1.78,5.93-2.8s3.76-2.21,5.58-3.44,3.54-2.6,5.2-4a55.25,55.25,0,0,0,4.78-4.54,56.82,56.82,0,0,0,4.29-5q2-2.58,3.74-5.36c1.17-1.86,2.21-3.82,3.18-5.77a63.85,63.85,0,0,0,2.57-6,55.07,55.07,0,0,0,2-6.53,65,65,0,0,0,1.31-6.67A58.85,58.85,0,0,0,1644.83,1136.23Zm-208.17-21.12c-4.94,2-10.79,7.19-15.43,10.26-32.61-24-1.51-26.81-12.44-52.61-3-7-4.72-10.28-2.83-18.19,4.48-6,5.21-8.14,12.1-10.6a111.06,111.06,0,0,1,11,5.25c1.17.66,2.32,1.36,3.45,2l33.26-12c5,4.07,10.89,8.33,14.19,14,5,8.52,1.23,16.89-1.62,25.44l-1.14,3.2a101.26,101.26,0,0,1,5.67,18.53C1473.1,1132.45,1455.31,1107.6,1436.66,1115.11Z"/><path class="cls-1" d="M1097.62,1422.12c-1-26.65-3.77-54.37-.43-80.34,21.77-2.77,44-8.78,58-27.21,10-13.09,12.92-29.54,10.61-45.58-8.37-59.29-91-158.94-131.15-205.21-19.89,56.15-62.49,182.9-37,239.18,7,15.45,19,27.31,35.17,33,14.73,5.12,28,4.18,43.05,2.31,2.43,30.93,3.41,62.54,7.25,93.46a32.24,32.24,0,0,0,2.7,2.91,63.87,63.87,0,0,0,11.24,8.5C1097,1436.09,1097.06,1429.09,1097.62,1422.12Zm-8.86-87.15-4.67-2.83c-5.88-8.11-23.23-147.82-22.4-163.32C1074,1202.1,1101.87,1304.72,1088.76,1335Z"/><path class="cls-1" d="M1175.08,1519.64c-16,6.3-28,18.6-34.58,34.44-6.74,16.05-2.82,35.54-1.41,52.47-29.69,5.78-58.11,16.14-87.58,22q7.92-11.61,15.87-23.2c-10.67-5.3-21.54-10.52-32.85-13.8q-14.26,17.69-28.53,35.36a356.85,356.85,0,0,0,26.25,30.1l5.57-7.93c35.67-8.28,71.33-17.88,107.16-25.21,5.37,22,14.45,42.19,35,54.07,19.27,11.17,42,10.21,62.71,4,55.18-16.54,135.91-65.36,182.68-100C1368.08,1555.63,1237.43,1495.07,1175.08,1519.64Zm119.64,66.16-.47,2.45q-74.13,13-148.35,25.17c0-4.44,0-7.3,2.08-11.25C1184,1587.59,1255.35,1585.36,1294.72,1585.8Z"/></g></svg>